HIERARCHY
ROOT Hips
{
	OFFSET 0.000000 89.005402 0.000000
	CHANNELS 6 Xposition Yposition Zposition Xrotation Yrotation Zrotation
	JOINT Spine
	{
		OFFSET 0.116900 10.681000 0.373400
		CHANNELS 3 Xrotation Yrotation Zrotation
		JOINT Spine1
		{
			OFFSET 0.000000 13.840401 0.053500
			CHANNELS 3 Xrotation Yrotation Zrotation
			JOINT Spine2
			{
				OFFSET 0.000000 14.712700 -0.366200
				CHANNELS 3 Xrotation Yrotation Zrotation
				JOINT Neck
				{
					OFFSET 0.000000 35.415497 -3.314200
					CHANNELS 3 Xrotation Yrotation Zrotation
					JOINT Head
					{
						OFFSET 0.000000 16.899200 1.218300
						CHANNELS 3 Xrotation Yrotation Zrotation
						JOINT HeadTop_End
						{
							OFFSET 0.000000 22.206207 2.192500
							CHANNELS 3 Xrotation Yrotation Zrotation
							End Site
							{
								OFFSET 0.000000 22.314178 0.000000
							}
						}
					}
				}
				JOINT LeftShoulder
				{
					OFFSET 12.896400 26.716293 -4.548400
					CHANNELS 3 Xrotation Yrotation Zrotation
					JOINT LeftArm
					{
						OFFSET 19.027000 -4.857010 -1.718400
						CHANNELS 3 Xrotation Yrotation Zrotation
						JOINT LeftForeArm
						{
							OFFSET 24.179897 0.000000 0.000000
							CHANNELS 3 Xrotation Yrotation Zrotation
							JOINT LeftHand
							{
								OFFSET 27.156403 0.000000 0.000000
								CHANNELS 3 Xrotation Yrotation Zrotation
								JOINT LeftHandIndex1
								{
									OFFSET 16.441200 0.000000 0.000000
									CHANNELS 3 Xrotation Yrotation Zrotation
									JOINT LeftHandIndex2
									{
										OFFSET 4.821899 0.000000 0.000000
										CHANNELS 3 Xrotation Yrotation Zrotation
										JOINT LeftHandIndex3
										{
											OFFSET 6.386497 0.000000 0.000000
											CHANNELS 3 Xrotation Yrotation Zrotation
											JOINT LeftHandIndex4
											{
												OFFSET 5.188988 0.000000 0.000000
												CHANNELS 3 Xrotation Yrotation Zrotation
												End Site
												{
													OFFSET -0.178703 5.185913 0.000177
												}
											}
										}
									}
								}
								JOINT LeftHandThumb1
								{
									OFFSET 6.534897 -5.032593 5.900300
									CHANNELS 3 Xrotation Yrotation Zrotation
									JOINT LeftHandThumb2
									{
										OFFSET 3.818176 -2.204422 2.204423
										CHANNELS 3 Xrotation Yrotation Zrotation
										JOINT LeftHandThumb3
										{
											OFFSET 3.252098 -1.877594 1.877601
											CHANNELS 3 Xrotation Yrotation Zrotation
											JOINT LeftHandThumb4
											{
												OFFSET 5.251778 -3.032120 3.032117
												CHANNELS 3 Xrotation Yrotation Zrotation
												End Site
												{
													OFFSET 0.000023 6.780014 0.000000
												}
											}
										}
									}
								}
							}
						}
					}
				}
				JOINT RightShoulder
				{
					OFFSET -12.896300 26.716293 -4.548400
					CHANNELS 3 Xrotation Yrotation Zrotation
					JOINT RightArm
					{
						OFFSET -19.027000 -4.857010 -1.718400
						CHANNELS 3 Xrotation Yrotation Zrotation
						JOINT RightForeArm
						{
							OFFSET -24.179897 0.000000 0.000000
							CHANNELS 3 Xrotation Yrotation Zrotation
							JOINT RightHand
							{
								OFFSET -27.156403 0.000000 0.000000
								CHANNELS 3 Xrotation Yrotation Zrotation
								JOINT RightHandThumb1
								{
									OFFSET -6.591202 -4.852203 5.988100
									CHANNELS 3 Xrotation Yrotation Zrotation
									JOINT RightHandThumb2
									{
										OFFSET -3.818176 -2.204422 2.204423
										CHANNELS 3 Xrotation Yrotation Zrotation
										JOINT RightHandThumb3
										{
											OFFSET -3.252098 -1.877594 1.877601
											CHANNELS 3 Xrotation Yrotation Zrotation
											JOINT RightHandThumb4
											{
												OFFSET -5.251778 -3.032120 3.032117
												CHANNELS 3 Xrotation Yrotation Zrotation
												End Site
												{
													OFFSET -0.000023 6.780014 0.000000
												}
											}
										}
									}
								}
								JOINT RightHandIndex1
								{
									OFFSET -16.029404 0.000000 0.000000
									CHANNELS 3 Xrotation Yrotation Zrotation
									JOINT RightHandIndex2
									{
										OFFSET -5.213303 0.000000 0.000000
										CHANNELS 3 Xrotation Yrotation Zrotation
										JOINT RightHandIndex3
										{
											OFFSET -6.386528 0.000000 0.000000
											CHANNELS 3 Xrotation Yrotation Zrotation
											JOINT RightHandIndex4
											{
												OFFSET -5.189026 0.000000 0.000000
												CHANNELS 3 Xrotation Yrotation Zrotation
												End Site
												{
													OFFSET 0.236702 5.183624 0.001972
												}
											}
										}
									}
								}
							}
						}
					}
				}
			}
		}
	}
	JOINT LeftUpLeg
	{
		OFFSET 14.073000 -7.904099 -1.463000
		CHANNELS 3 Xrotation Yrotation Zrotation
		JOINT LeftLeg
		{
			OFFSET -0.109806 -34.073280 4.093200
			CHANNELS 3 Xrotation Yrotation Zrotation
			JOINT LeftFoot
			{
				OFFSET 0.109806 -29.899420 -6.319000
				CHANNELS 3 Xrotation Yrotation Zrotation
				JOINT LeftToeBase
				{
					OFFSET 1.551100 -14.988700 20.535801
					CHANNELS 3 Xrotation Yrotation Zrotation
					JOINT LeftToe_End
					{
						OFFSET 0.221200 0.570800 13.248301
						CHANNELS 3 Xrotation Yrotation Zrotation
						End Site
						{
							OFFSET 0.000000 13.262435 0.000000
						}
					}
				}
			}
		}
	}
	JOINT RightUpLeg
	{
		OFFSET -13.839300 -7.904099 -1.463000
		CHANNELS 3 Xrotation Yrotation Zrotation
		JOINT RightLeg
		{
			OFFSET 0.109694 -34.073219 4.093300
			CHANNELS 3 Xrotation Yrotation Zrotation
			JOINT RightFoot
			{
				OFFSET -0.109694 -29.899384 -6.319200
				CHANNELS 3 Xrotation Yrotation Zrotation
				JOINT RightToeBase
				{
					OFFSET -1.551100 -14.988700 20.535801
					CHANNELS 3 Xrotation Yrotation Zrotation
					JOINT RightToe_End
					{
						OFFSET -0.221200 0.570900 13.248299
						CHANNELS 3 Xrotation Yrotation Zrotation
						End Site
						{
							OFFSET 0.000000 13.262440 0.000000
						}
					}
				}
			}
		}
	}
}
MOTION
Frames: 4
Frame Time: 0.033333
-1.655126 74.004250 32.269855 3.790466 0.434457 -2.581366 1.537318 1.146426 0.118188 2.122739 1.132758 0.120469 2.122299 1.133097 0.109469 -8.502239 -2.249075 5.359941 -8.193070 -0.834605 -4.938219 0.000000 -0.000000 -0.000000 1.130969 -15.228279 -9.497750 -4.699223 -30.309624 -38.973087 0.000009 -27.473135 0.000010 2.500515 -9.046673 3.689523 0.132457 2.475416 -13.169949 0.749774 2.869399 -29.282151 0.264255 1.741313 -17.257347 0.000001 -0.000001 -0.000001 0.699761 -6.020114 19.223917 21.326885 31.764932 -4.031692 3.914610 3.585200 -0.086287 -0.000001 0.000003 -0.000001 1.616476 17.047756 15.315668 -13.698294 19.210001 43.124322 -0.000001 21.399029 0.000002 21.835758 4.586539 -1.837385 -13.495568 -11.552047 -5.371131 18.032080 -33.474969 -1.443348 2.608674 -5.349797 -22.676515 -0.000001 0.000000 0.000000 -0.035970 -3.675931 36.058403 0.752523 -2.540258 32.997802 0.169547 -1.246516 15.492109 0.000002 0.000001 -0.000000 -55.242840 1.433947 0.965036 48.235394 4.464333 1.856205 2.849879 0.748391 2.852916 0.172797 0.000439 -0.194631 0.000000 -0.000000 0.000000 12.333658 -8.733662 -8.243184 30.262967 -2.467564 -3.725262 -41.096828 -6.345254 16.216785 -6.501363 0.000001 -0.000001 -0.000000 -0.000001 0.000000 
-1.000930 72.915291 33.574078 3.678502 0.225150 -2.581588 1.661010 1.134740 0.147413 2.275505 1.099751 0.209977 2.275459 1.099967 0.198978 -8.577416 -2.217501 5.406027 -8.295015 -0.595021 -5.008379 -0.000000 0.000000 -0.000000 1.161416 -15.874707 -8.829101 -6.749677 -32.593523 -36.655641 -0.000003 -28.519337 -0.000011 2.386988 -9.411615 4.619005 0.321657 2.746046 -12.362772 0.772314 2.909189 -29.729317 0.254506 1.709615 -16.933333 -0.000002 0.000000 0.000000 0.699764 -6.020118 19.223923 21.323362 31.763446 -4.028740 4.002797 3.920033 -0.410547 -0.000002 0.000003 0.000001 1.606083 17.339289 15.145980 -15.744472 22.038630 40.322817 0.000004 22.501546 -0.000002 21.583717 4.948550 -2.070185 -13.495569 -11.552043 -5.371131 17.439162 -32.229245 -2.201732 2.737194 -5.354149 -22.881745 -0.000002 -0.000004 0.000000 -0.099318 -3.430889 32.753704 0.683070 -2.430047 31.396122 0.162124 -1.219324 15.145974 0.000001 -0.000001 -0.000002 -56.548492 1.329621 0.476238 53.135402 5.280433 1.694336 -0.659965 0.709310 3.010195 0.108662 0.000168 -0.122501 0.000000 -0.000000 -0.000000 8.655375 -8.738703 -10.437918 40.363321 -0.440574 -3.626767 -41.845929 -7.148154 16.247917 -12.249692 -0.000002 -0.000004 -0.000000 -0.000001 -0.000000 
-0.466530 71.559296 34.593590 3.689121 -0.285735 -2.434578 1.861700 1.091371 0.106005 2.526921 1.048177 0.325219 2.527333 1.048191 0.314150 -8.820884 -2.114494 5.405405 -8.536574 -0.075289 -5.062920 -0.000000 -0.000000 0.000000 1.218903 -16.192188 -8.043980 -9.184110 -35.007404 -34.253149 -0.000007 -29.464620 -0.000005 2.407042 -9.799235 5.183008 0.448005 2.925449 -11.551360 0.803644 2.963312 -30.341056 0.242641 1.670160 -16.530801 0.000001 0.000001 0.000001 0.699765 -6.020116 19.223919 21.242278 31.610891 -3.928597 4.032434 3.988512 -0.499979 0.000000 0.000002 0.000000 1.627187 17.690245 14.535811 -18.213529 25.388887 37.721475 -0.000004 23.668089 0.000003 20.280440 5.411838 -2.261535 -13.495569 -11.552045 -5.371130 17.040009 -31.314904 -2.734882 2.820602 -5.387319 -22.933304 -0.000001 -0.000003 0.000000 -0.255980 -2.936169 28.968130 0.624276 -2.331100 29.980928 0.156353 -1.197847 14.872730 0.000001 -0.000000 -0.000000 -58.284395 1.296553 0.304032 58.080534 6.118136 1.199769 -3.893194 0.661816 3.153940 0.067829 0.000064 -0.076563 -0.000000 -0.000000 0.000000 0.976329 -7.630175 -13.879909 56.260193 2.879792 -3.348842 -40.130329 -8.021157 15.709512 -16.579598 -0.083653 2.611979 -0.000000 -0.000001 -0.000000 
-0.075493 70.047546 35.457355 3.885233 -0.914048 -2.354138 2.127455 1.039126 0.021820 2.862839 1.036155 0.414907 2.863671 1.035863 0.403086 -9.214787 -2.010083 5.449823 -9.001260 0.554556 -4.999667 -0.000000 0.000000 0.000000 1.333056 -16.281460 -6.768359 -11.554502 -37.899173 -31.478153 -0.000004 -30.060120 -0.000007 2.662388 -10.291232 5.832171 0.576222 3.123314 -10.684088 0.813838 2.980623 -30.537485 0.236494 1.649353 -16.319089 -0.000001 -0.000001 -0.000000 0.699764 -6.020116 19.223917 21.189535 31.512416 -3.863690 4.088861 4.163480 -0.684869 0.000001 0.000001 0.000000 1.688921 17.993093 13.594295 -20.936164 29.408824 35.364083 -0.000002 24.174266 0.000003 18.724636 5.884120 -2.411640 -13.495565 -11.552045 -5.371129 16.741092 -30.563983 -3.150774 2.864078 -5.412087 -23.028867 0.000002 0.000001 -0.000001 -0.344077 -2.348439 24.926220 0.567689 -2.230223 28.559222 0.151420 -1.179109 14.634987 0.000002 0.000000 0.000000 -60.411234 1.526683 0.606440 63.017006 6.473059 0.563726 -6.921786 0.595161 3.448840 0.057618 0.000045 -0.065077 0.000000 0.000000 0.000000 -9.035307 -5.171952 -17.066006 71.582923 8.249378 -2.493934 -35.641925 -6.825404 13.766623 -26.665238 -1.025740 3.910269 -0.000000 -0.000002 -0.000000 
